<svg xmlns="http://www.w3.org/2000/svg"><symbol viewBox="0 0 48 48" id="shape_access_time"><path d="M23.99 4C12.94 4 4 12.95 4 24s8.94 20 19.99 20C35.04 44 44 35.05 44 24S35.04 4 23.99 4zM24 40c-8.84 0-16-7.16-16-16S15.16 8 24 8s16 7.16 16 16-7.16 16-16 16zm1-26h-3v12l10.49 6.3L34 29.84l-9-5.34z"/></symbol><symbol viewBox="0 0 48 48" id="shape_account_circle"><path d="M24 4C12.95 4 4 12.95 4 24s8.95 20 20 20 20-8.95 20-20S35.05 4 24 4zm0 6c3.31 0 6 2.69 6 6 0 3.32-2.69 6-6 6s-6-2.68-6-6c0-3.31 2.69-6 6-6zm0 28.4c-5.01 0-9.41-2.56-12-6.44.05-3.97 8.01-6.16 12-6.16s11.94 2.19 12 6.16c-2.59 3.88-6.99 6.44-12 6.44z"/></symbol><symbol viewBox="0 0 48 48" id="shape_add"><path d="M38 26H26v12h-4V26H10v-4h12V10h4v12h12v4z"/></symbol><symbol viewBox="0 0 48 48" id="shape_arrow_back"><path d="M40 22H15.66l11.17-11.17L24 8 8 24l16 16 2.83-2.83L15.66 26H40v-4z"/></symbol><symbol viewBox="0 0 48 48" id="shape_arrow_drop_down"><path d="M14 20l10 10 10-10z"/></symbol><symbol viewBox="0 0 48 48" id="shape_arrow_forward"><path d="M24 8l-2.83 2.83L32.34 22H8v4h24.34L21.17 37.17 24 40l16-16z"/></symbol><symbol viewBox="0 0 48 48" id="shape_aspect_ratio"><path d="M38 24h-4v6h-6v4h10V24zm-24-6h6v-4H10v10h4v-6zM42 6H6c-2.21 0-4 1.79-4 4v28c0 2.21 1.79 4 4 4h36c2.21 0 4-1.79 4-4V10c0-2.21-1.79-4-4-4zm0 32.03H6V9.97h36v28.06z"/></symbol><symbol viewBox="0 0 48 48" id="shape_attach_file"><path d="M33 12v23c0 4.42-3.58 8-8 8s-8-3.58-8-8V10c0-2.76 2.24-5 5-5s5 2.24 5 5v21c0 1.1-.89 2-2 2-1.11 0-2-.9-2-2V12h-3v19c0 2.76 2.24 5 5 5s5-2.24 5-5V10c0-4.42-3.58-8-8-8s-8 3.58-8 8v25c0 6.08 4.93 11 11 11s11-4.92 11-11V12h-3z"/></symbol><symbol viewBox="0 0 48 48" id="shape_audiotrack"><path d="M24 6v18.55c-.94-.33-1.94-.55-3-.55-4.97 0-9 4.03-9 9s4.03 9 9 9c4.63 0 8.4-3.51 8.9-8h.1V12h8V6H24z"/></symbol><symbol viewBox="0 0 48 48" id="shape_autorenew"><path d="M24 12v6l8-8-8-8v6C15.16 8 8 15.16 8 24c0 3.14.92 6.05 2.48 8.52l2.92-2.92c-.89-1.67-1.4-3.57-1.4-5.6 0-6.63 5.37-12 12-12zm13.52 3.48L34.6 18.4c.89 1.67 1.4 3.57 1.4 5.6 0 6.63-5.37 12-12 12v-6l-8 8 8 8v-6c8.84 0 16-7.16 16-16 0-3.14-.92-6.05-2.48-8.52z"/></symbol><symbol viewBox="0 0 48 48" id="shape_block"><path d="M24 4C12.95 4 4 12.95 4 24s8.95 20 20 20 20-8.95 20-20S35.05 4 24 4zM8 24c0-8.84 7.16-16 16-16 3.7 0 7.09 1.27 9.8 3.37L11.37 33.8C9.27 31.09 8 27.7 8 24zm16 16c-3.7 0-7.09-1.27-9.8-3.37L36.63 14.2C38.73 16.91 40 20.3 40 24c0 8.84-7.16 16-16 16z"/></symbol><symbol viewBox="0 0 48 48" id="shape_brightness_1"><circle cx="24" cy="24" r="20"/></symbol><symbol viewBox="0 0 48 48" id="shape_brush"><path d="M14 28c-3.31 0-6 2.69-6 6 0 2.62-2.31 4-4 4 1.84 2.44 4.99 4 8 4 4.42 0 8-3.58 8-8 0-3.31-2.69-6-6-6zM41.41 9.26l-2.67-2.67c-.78-.78-2.05-.78-2.83 0L18 24.5l5.5 5.5 17.91-17.91c.79-.79.79-2.05 0-2.83z"/></symbol><symbol viewBox="0 0 48 48" id="shape_cached"><path d="M38 16l-8 8h6c0 6.63-5.37 12-12 12-2.03 0-3.93-.51-5.61-1.39l-2.92 2.92C17.95 39.08 20.86 40 24 40c8.84 0 16-7.16 16-16h6l-8-8zm-26 8c0-6.63 5.37-12 12-12 2.03 0 3.93.51 5.61 1.39l2.92-2.92C30.05 8.92 27.14 8 24 8 15.16 8 8 15.16 8 24H2l8 8 8-8h-6z"/></symbol><symbol viewBox="0 0 48 48" id="shape_change_history"><path d="M24 15.55L36.78 36H11.22L24 15.55M24 8L4 40h40L24 8z"/></symbol><symbol viewBox="0 0 48 48" id="shape_chat"><path d="M40 4H8C5.79 4 4.02 5.79 4.02 8L4 44l8-8h28c2.21 0 4-1.79 4-4V8c0-2.21-1.79-4-4-4zM12 18h24v4H12v-4zm16 10H12v-4h16v4zm8-12H12v-4h24v4z"/></symbol><symbol viewBox="0 0 48 48" id="shape_check"><path d="M18 32.34L9.66 24l-2.83 2.83L18 38l24-24-2.83-2.83z"/></symbol><symbol viewBox="0 0 48 48" id="shape_check_box"><path d="M38 6H10c-2.21 0-4 1.79-4 4v28c0 2.21 1.79 4 4 4h28c2.21 0 4-1.79 4-4V10c0-2.21-1.79-4-4-4zM20 34L10 24l2.83-2.83L20 28.34l15.17-15.17L38 16 20 34z"/></symbol><symbol viewBox="0 0 48 48" id="shape_check_box_outline_blank"><path d="M38 10v28H10V10h28m0-4H10c-2.21 0-4 1.79-4 4v28c0 2.21 1.79 4 4 4h28c2.21 0 4-1.79 4-4V10c0-2.21-1.79-4-4-4z"/></symbol><symbol viewBox="0 0 48 48" id="shape_clear"><path d="M38 12.83L35.17 10 24 21.17 12.83 10 10 12.83 21.17 24 10 35.17 12.83 38 24 26.83 35.17 38 38 35.17 26.83 24z"/></symbol><symbol viewBox="0 0 48 48" id="shape_clear_all"><path d="M10 26h28v-4H10v4zm-4 8h28v-4H6v4zm8-20v4h28v-4H14z"/></symbol><symbol viewBox="0 0 48 48" id="shape_close"><path d="M38 12.83L35.17 10 24 21.17 12.83 10 10 12.83 21.17 24 10 35.17 12.83 38 24 26.83 35.17 38 38 35.17 26.83 24z"/></symbol><symbol viewBox="0 0 48 48" id="shape_color_lens"><path d="M24 6C14.06 6 6 14.06 6 24s8.06 18 18 18c1.66 0 3-1.34 3-3 0-.78-.29-1.48-.78-2.01-.47-.53-.75-1.22-.75-1.99 0-1.66 1.34-3 3-3H32c5.52 0 10-4.48 10-10 0-8.84-8.06-16-18-16zM13 24c-1.66 0-3-1.34-3-3s1.34-3 3-3 3 1.34 3 3-1.34 3-3 3zm6-8c-1.66 0-3-1.34-3-3s1.34-3 3-3 3 1.34 3 3-1.34 3-3 3zm10 0c-1.66 0-3-1.34-3-3s1.34-3 3-3 3 1.34 3 3-1.34 3-3 3zm6 8c-1.66 0-3-1.34-3-3s1.34-3 3-3 3 1.34 3 3-1.34 3-3 3z"/></symbol><symbol viewBox="0 0 48 48" id="shape_colorize"><path d="M41.41 11.26l-4.67-4.67c-.78-.78-2.05-.78-2.83 0l-6.25 6.25L23.83 9 21 11.83l2.84 2.84L6 32.5V42h9.5l17.84-17.84L36.17 27 39 24.17l-3.84-3.84 6.25-6.25c.79-.78.79-2.04 0-2.82zM13.84 38L10 34.16l16.13-16.13 3.84 3.84L13.84 38z"/></symbol><symbol viewBox="0 0 48 48" id="shape_content_copy"><path d="M32 2H8C5.79 2 4 3.79 4 6v28h4V6h24V2zm6 8H16c-2.21 0-4 1.79-4 4v28c0 2.21 1.79 4 4 4h22c2.21 0 4-1.79 4-4V14c0-2.21-1.79-4-4-4zm0 32H16V14h22v28z"/></symbol><symbol viewBox="0 0 48 48" id="shape_crop_portrait"><path d="M34 6H14c-2.21 0-4 1.79-4 4v28c0 2.21 1.79 4 4 4h20c2.21 0 4-1.79 4-4V10c0-2.21-1.79-4-4-4zm0 32H14V10h20v28z"/></symbol><symbol viewBox="0 0 48 48" id="shape_crop_square"><path d="M36 8H12c-2.21 0-4 1.79-4 4v24c0 2.21 1.79 4 4 4h24c2.21 0 4-1.79 4-4V12c0-2.21-1.79-4-4-4zm0 28H12V12h24v24z"/></symbol><symbol viewBox="0 0 48 48" id="shape_delete"><path d="M12 38c0 2.21 1.79 4 4 4h16c2.21 0 4-1.79 4-4V14H12v24zM38 8h-7l-2-2H19l-2 2h-7v4h28V8z"/></symbol><symbol viewBox="0 0 48 48" id="shape_delete_sweep"><path d="M30 32h8v4h-8zm0-16h14v4H30zm0 8h12v4H30zM6 36c0 2.2 1.8 4 4 4h12c2.2 0 4-1.8 4-4V16H6v20zm22-26h-6l-2-2h-8l-2 2H4v4h24z"/></symbol><symbol viewBox="0 0 48 48" id="shape_desktop_windows"><path d="M42 4H6C3.79 4 2 5.79 2 8v24c0 2.21 1.79 4 4 4h14v4h-4v4h16v-4h-4v-4h14c2.21 0 4-1.79 4-4V8c0-2.21-1.79-4-4-4zm0 28H6V8h36v24z"/></symbol><symbol viewBox="0 0 48 48" id="shape_done"><path d="M18 32.34L9.66 24l-2.83 2.83L18 38l24-24-2.83-2.83z"/></symbol><symbol viewBox="0 0 48 48" id="shape_error"><path d="M24 4C12.96 4 4 12.95 4 24s8.96 20 20 20 20-8.95 20-20S35.04 4 24 4zm2 30h-4v-4h4v4zm0-8h-4V14h4v12z"/></symbol><symbol viewBox="0 0 48 48" id="shape_error_outline"><path d="M22 30h4v4h-4zm0-16h4v12h-4zm1.99-10C12.94 4 4 12.95 4 24s8.94 20 19.99 20S44 35.05 44 24 35.04 4 23.99 4zM24 40c-8.84 0-16-7.16-16-16S15.16 8 24 8s16 7.16 16 16-7.16 16-16 16z"/></symbol><symbol viewBox="0 0 48 48" id="shape_expand_less"><path d="M24 16L12 28l2.83 2.83L24 21.66l9.17 9.17L36 28z"/></symbol><symbol viewBox="0 0 48 48" id="shape_expand_more"><path d="M33.17 17.17L24 26.34l-9.17-9.17L12 20l12 12 12-12z"/></symbol><symbol viewBox="0 0 48 48" id="shape_file_download"><path d="M38 18h-8V6H18v12h-8l14 14 14-14zM10 36v4h28v-4H10z"/></symbol><symbol viewBox="0 0 48 48" id="shape_file_upload"><path d="M18 32h12V20h8L24 6 10 20h8zm-8 4h28v4H10z"/></symbol><symbol viewBox="0 0 48 48" id="shape_filter_none"><path d="M6 10H2v32c0 2.21 1.79 4 4 4h32v-4H6V10zm36-8H14c-2.21 0-4 1.79-4 4v28c0 2.21 1.79 4 4 4h28c2.21 0 4-1.79 4-4V6c0-2.21-1.79-4-4-4zm0 32H14V6h28v28z"/></symbol><symbol viewBox="0 0 48 48" id="shape_flip_to_back"> <path d="M0 0h48v48H0z" fill="none"/> <path d="M18 14h-4v4h4v-4zm0 8h-4v4h4v-4zm0-16c-2.21 0-4 1.79-4 4h4V6zm8 24h-4v4h4v-4zM38 6v4h4c0-2.21-1.79-4-4-4zM26 6h-4v4h4V6zm-8 28v-4h-4c0 2.21 1.79 4 4 4zm20-8h4v-4h-4v4zm0-8h4v-4h-4v4zm0 16c2.21 0 4-1.79 4-4h-4v4zM10 14H6v24c0 2.21 1.79 4 4 4h24v-4H10V14zm20-4h4V6h-4v4zm0 24h4v-4h-4v4z"/> </symbol><symbol viewBox="0 0 48 48" id="shape_flip_to_front"> <path d="M0 0h48v48H0z" fill="none"/> <path d="M6 26h4v-4H6v4zm0 8h4v-4H6v4zm4 8v-4H6c0 2.21 1.79 4 4 4zM6 18h4v-4H6v4zm24 24h4v-4h-4v4zm8-36H18c-2.21 0-4 1.79-4 4v20c0 2.21 1.79 4 4 4h20c2.21 0 4-1.79 4-4V10c0-2.21-1.79-4-4-4zm0 24H18V10h20v20zM22 42h4v-4h-4v4zm-8 0h4v-4h-4v4z"/> </symbol><symbol viewBox="0 0 48 48" id="shape_folder_open"><path d="M40 12H24l-4-4H8c-2.21 0-3.98 1.79-3.98 4L4 36c0 2.21 1.79 4 4 4h32c2.21 0 4-1.79 4-4V16c0-2.21-1.79-4-4-4zm0 24H8V16h32v20z"/></symbol><symbol viewBox="0 0 24 24" id="shape_font_download"> <path fill="none" d="M0 0h24v24H0V0z"/> <path d="M9.93 13.5h4.14L12 7.98zM20 2H4c-1.1 0-2 .9-2 2v16c0 1.1.9 2 2 2h16c1.1 0 2-.9 2-2V4c0-1.1-.9-2-2-2zm-4.05 16.5l-1.14-3H9.17l-1.12 3H5.96l5.11-13h1.86l5.11 13h-2.09z"/> </symbol><symbol viewBox="0 0 48 48" id="shape_format_align_center"><path d="M14 30v4h20v-4H14zM6 42h36v-4H6v4zm0-16h36v-4H6v4zm8-12v4h20v-4H14zM6 6v4h36V6H6z"/></symbol><symbol viewBox="0 0 48 48" id="shape_format_align_justify"><path d="M6 42h36v-4H6v4zm0-8h36v-4H6v4zm0-8h36v-4H6v4zm0-8h36v-4H6v4zM6 6v4h36V6H6z"/></symbol><symbol viewBox="0 0 48 48" id="shape_format_align_left"><path d="M30 30H6v4h24v-4zm0-16H6v4h24v-4zM6 26h36v-4H6v4zm0 16h36v-4H6v4zM6 6v4h36V6H6z"/></symbol><symbol viewBox="0 0 48 48" id="shape_format_align_right"><path d="M6 42h36v-4H6v4zm12-8h24v-4H18v4zM6 26h36v-4H6v4zm12-8h24v-4H18v4zM6 6v4h36V6H6z"/></symbol><symbol viewBox="0 0 48 48" id="shape_format_bold"><path d="M31.2 21.58c1.93-1.35 3.3-3.53 3.3-5.58 0-4.51-3.49-8-8-8H14v28h14.08c4.19 0 7.42-3.4 7.42-7.58 0-3.04-1.73-5.63-4.3-6.84zM20 13h6c1.66 0 3 1.34 3 3s-1.34 3-3 3h-6v-6zm7 18h-7v-6h7c1.66 0 3 1.34 3 3s-1.34 3-3 3z"/></symbol><symbol viewBox="0 0 48 48" id="shape_format_color_fill"><path d="M33.12 17.88L15.24 0l-2.83 2.83 4.76 4.76L6.88 17.88c-1.17 1.17-1.17 3.07 0 4.24l11 11c.58.59 1.35.88 2.12.88s1.54-.29 2.12-.88l11-11c1.17-1.17 1.17-3.07 0-4.24zM10.41 20L20 10.42 29.59 20H10.41zM38 23s-4 4.33-4 7c0 2.21 1.79 4 4 4s4-1.79 4-4c0-2.67-4-7-4-7z"/><path fill-opacity=".36" d="M0 40h48v8H0z"/></symbol><symbol viewBox="0 0 48 48" id="shape_format_color_reset"><path d="M36 28c0-8-12-21.6-12-21.6s-2.66 3.02-5.47 7.04L35.7 30.61c.19-.84.3-1.71.3-2.61zm-1.76 6.24L25 25 10.54 10.54 8 13.09l6.64 6.64C13.11 22.65 12 25.58 12 28c0 6.63 5.37 12 12 12 3.04 0 5.8-1.14 7.91-3l5.27 5.27 2.54-2.55-5.48-5.48z"/></symbol><symbol viewBox="0 0 48 48" id="shape_format_italic"> <path d="M0 0h48v48H0z" fill="none"/> <path d="M20 8v6h4.43l-6.86 16H12v6h16v-6h-4.43l6.86-16H36V8z"/> </symbol><symbol viewBox="0 0 48 48" id="shape_format_size"><path d="M18 8v6h10v24h6V14h10V8H18zM6 24h6v14h6V24h6v-6H6v6z"/></symbol><symbol viewBox="0 0 48 48" id="shape_format_strikethrough"><path d="M20 38h8v-6h-8v6zM10 8v6h10v6h8v-6h10V8H10zM6 28h36v-4H6v4z"/></symbol><symbol viewBox="0 0 48 48" id="shape_format_underlined"><path d="M24 34c6.63 0 12-5.37 12-12V6h-5v16c0 3.87-3.13 7-7 7s-7-3.13-7-7V6h-5v16c0 6.63 5.37 12 12 12zm-14 4v4h28v-4H10z"/></symbol><symbol viewBox="0 0 48 48" id="shape_fullscreen"><path d="M14 28h-4v10h10v-4h-6v-6zm-4-8h4v-6h6v-4H10v10zm24 14h-6v4h10V28h-4v6zm-6-24v4h6v6h4V10H28z"/></symbol><symbol viewBox="0 0 48 48" id="shape_fullscreen_exit"><path d="M10 32h6v6h4V28H10v4zm6-16h-6v4h10V10h-4v6zm12 22h4v-6h6v-4H28v10zm4-22v-6h-4v10h10v-4h-6z"/></symbol><symbol viewBox="0 0 48 48" id="shape_group"><path d="M32 22c3.31 0 5.98-2.69 5.98-6s-2.67-6-5.98-6c-3.31 0-6 2.69-6 6s2.69 6 6 6zm-16 0c3.31 0 5.98-2.69 5.98-6s-2.67-6-5.98-6c-3.31 0-6 2.69-6 6s2.69 6 6 6zm0 4c-4.67 0-14 2.34-14 7v5h28v-5c0-4.66-9.33-7-14-7zm16 0c-.58 0-1.23.04-1.93.11C32.39 27.78 34 30.03 34 33v5h12v-5c0-4.66-9.33-7-14-7z"/></symbol><symbol viewBox="0 0 48 48" id="shape_help"><path d="M24 4C12.95 4 4 12.95 4 24s8.95 20 20 20 20-8.95 20-20S35.05 4 24 4zm2 34h-4v-4h4v4zm4.13-15.49l-1.79 1.84C26.9 25.79 26 27 26 30h-4v-1c0-2.21.9-4.21 2.34-5.66l2.49-2.52C27.55 20.1 28 19.1 28 18c0-2.21-1.79-4-4-4s-4 1.79-4 4h-4c0-4.42 3.58-8 8-8s8 3.58 8 8c0 1.76-.71 3.35-1.87 4.51z"/></symbol><symbol viewBox="0 0 48 48" id="shape_highlight_off"><path d="M29.17 16L24 21.17 18.83 16 16 18.83 21.17 24 16 29.17 18.83 32 24 26.83 29.17 32 32 29.17 26.83 24 32 18.83 29.17 16zM24 4C12.95 4 4 12.95 4 24s8.95 20 20 20 20-8.95 20-20S35.05 4 24 4zm0 36c-8.82 0-16-7.18-16-16S15.18 8 24 8s16 7.18 16 16-7.18 16-16 16z"/></symbol><symbol viewBox="0 0 48 48" id="shape_image"><path d="M42 38V10c0-2.21-1.79-4-4-4H10c-2.21 0-4 1.79-4 4v28c0 2.21 1.79 4 4 4h28c2.21 0 4-1.79 4-4zM17 27l5 6.01L29 24l9 12H10l7-9z"/></symbol><symbol viewBox="0 0 48 48" id="shape_import_export"><path d="M18 6l-8 7.98h6V28h4V13.98h6L18 6zm14 28.02V20h-4v14.02h-6L30 42l8-7.98h-6z"/></symbol><symbol viewBox="0 0 48 48" id="shape_info"><path d="M24 4C12.95 4 4 12.95 4 24s8.95 20 20 20 20-8.95 20-20S35.05 4 24 4zm2 30h-4V22h4v12zm0-16h-4v-4h4v4z"/></symbol><symbol viewBox="0 0 48 48" id="shape_info_outline"><path d="M22 34h4V22h-4v12zm2-30C12.95 4 4 12.95 4 24s8.95 20 20 20 20-8.95 20-20S35.05 4 24 4zm0 36c-8.82 0-16-7.18-16-16S15.18 8 24 8s16 7.18 16 16-7.18 16-16 16zm-2-22h4v-4h-4v4z"/></symbol><symbol viewBox="0 0 48 48" id="shape_insert_drive_file"><path d="M12 4C9.79 4 8.02 5.79 8.02 8L8 40c0 2.21 1.77 4 3.98 4H36c2.21 0 4-1.79 4-4V16L28 4H12zm14 14V7l11 11H26z"/></symbol><symbol viewBox="0 0 48 48" id="shape_insert_emoticon"><path d="M23.99 4C12.94 4 4 12.95 4 24s8.94 20 19.99 20C35.04 44 44 35.05 44 24S35.04 4 23.99 4zM24 40c-8.84 0-16-7.16-16-16S15.16 8 24 8s16 7.16 16 16-7.16 16-16 16zm7-18c1.66 0 3-1.34 3-3s-1.34-3-3-3-3 1.34-3 3 1.34 3 3 3zm-14 0c1.66 0 3-1.34 3-3s-1.34-3-3-3-3 1.34-3 3 1.34 3 3 3zm7 13c4.66 0 8.61-2.91 10.21-7H13.79c1.6 4.09 5.55 7 10.21 7z"/></symbol><symbol viewBox="0 0 48 48" id="shape_keyboard_arrow_left"><path d="M30.83 32.67l-9.17-9.17 9.17-9.17L28 11.5l-12 12 12 12z"/></symbol><symbol viewBox="0 0 48 48" id="shape_keyboard_arrow_right"><path d="M17.17 32.92l9.17-9.17-9.17-9.17L20 11.75l12 12-12 12z"/></symbol><symbol viewBox="0 0 48 48" id="shape_language"><path d="M23.99 4C12.94 4 4 12.95 4 24s8.94 20 19.99 20C35.04 44 44 35.05 44 24S35.04 4 23.99 4zm13.85 12h-5.9c-.65-2.5-1.56-4.9-2.76-7.12 3.68 1.26 6.74 3.81 8.66 7.12zM24 8.07c1.67 2.4 2.97 5.07 3.82 7.93h-7.64c.85-2.86 2.15-5.53 3.82-7.93zM8.52 28C8.19 26.72 8 25.38 8 24s.19-2.72.52-4h6.75c-.16 1.31-.27 2.64-.27 4 0 1.36.11 2.69.28 4H8.52zm1.63 4h5.9c.65 2.5 1.56 4.9 2.76 7.13-3.68-1.26-6.74-3.82-8.66-7.13zm5.9-16h-5.9c1.92-3.31 4.98-5.87 8.66-7.13-1.2 2.23-2.11 4.63-2.76 7.13zM24 39.93c-1.66-2.4-2.96-5.07-3.82-7.93h7.64c-.86 2.86-2.16 5.53-3.82 7.93zM28.68 28h-9.36c-.19-1.31-.32-2.64-.32-4 0-1.36.13-2.69.32-4h9.36c.19 1.31.32 2.64.32 4 0 1.36-.13 2.69-.32 4zm.51 11.12c1.2-2.23 2.11-4.62 2.76-7.12h5.9c-1.93 3.31-4.99 5.86-8.66 7.12zM32.72 28c.16-1.31.28-2.64.28-4 0-1.36-.11-2.69-.28-4h6.75c.33 1.28.53 2.62.53 4s-.19 2.72-.53 4h-6.75z"/></symbol><symbol viewBox="0 0 48 48" id="shape_laptop"><path d="M40 36c2.2 0 4-1.8 4-4V12c0-2.2-1.8-4-4-4H8c-2.2 0-4 1.8-4 4v20c0 2.2 1.8 4 4 4H0v4h48v-4h-8zM8 12h32v20H8V12z"/></symbol><symbol viewBox="0 0 48 48" id="shape_lock"><path d="M36 16h-2v-4c0-5.52-4.48-10-10-10S14 6.48 14 12v4h-2c-2.21 0-4 1.79-4 4v20c0 2.21 1.79 4 4 4h24c2.21 0 4-1.79 4-4V20c0-2.21-1.79-4-4-4zM24 34c-2.21 0-4-1.79-4-4s1.79-4 4-4 4 1.79 4 4-1.79 4-4 4zm6.2-18H17.8v-4c0-3.42 2.78-6.2 6.2-6.2 3.42 0 6.2 2.78 6.2 6.2v4z"/></symbol><symbol viewBox="0 0 48 48" id="shape_menu"><path d="M6 36h36v-4H6v4zm0-10h36v-4H6v4zm0-14v4h36v-4H6z"/></symbol><symbol viewBox="0 0 48 48" id="shape_message"><path d="M40 4H8C5.79 4 4.02 5.79 4.02 8L4 44l8-8h28c2.21 0 4-1.79 4-4V8c0-2.21-1.79-4-4-4zm-4 24H12v-4h24v4zm0-6H12v-4h24v4zm0-6H12v-4h24v4z"/></symbol><symbol viewBox="0 0 48 48" id="shape_mic"><path d="M24 28c3.31 0 5.98-2.69 5.98-6L30 10c0-3.32-2.68-6-6-6-3.31 0-6 2.68-6 6v12c0 3.31 2.69 6 6 6zm10.6-6c0 6-5.07 10.2-10.6 10.2-5.52 0-10.6-4.2-10.6-10.2H10c0 6.83 5.44 12.47 12 13.44V42h4v-6.56c6.56-.97 12-6.61 12-13.44h-3.4z"/></symbol><symbol viewBox="0 0 48 48" id="shape_mic_off"><path d="M38 22h-3.4c0 1.49-.31 2.87-.87 4.1l2.46 2.46C37.33 26.61 38 24.38 38 22zm-8.03.33c0-.11.03-.22.03-.33V10c0-3.32-2.69-6-6-6s-6 2.68-6 6v.37l11.97 11.96zM8.55 6L6 8.55l12.02 12.02v1.44c0 3.31 2.67 6 5.98 6 .45 0 .88-.06 1.3-.15l3.32 3.32c-1.43.66-3 1.03-4.62 1.03-5.52 0-10.6-4.2-10.6-10.2H10c0 6.83 5.44 12.47 12 13.44V42h4v-6.56c1.81-.27 3.53-.9 5.08-1.81L39.45 42 42 39.46 8.55 6z"/></symbol><symbol viewBox="0 0 48 48" id="shape_mode_comment"><path d="M43.98 8c0-2.21-1.77-4-3.98-4H8C5.79 4 4 5.79 4 8v24c0 2.21 1.79 4 4 4h28l8 8-.02-36z"/></symbol><symbol viewBox="0 0 48 48" id="shape_mode_edit"><path d="M6 34.5V42h7.5l22.13-22.13-7.5-7.5L6 34.5zm35.41-20.41c.78-.78.78-2.05 0-2.83l-4.67-4.67c-.78-.78-2.05-.78-2.83 0l-3.66 3.66 7.5 7.5 3.66-3.66z"/></symbol><symbol viewBox="0 0 48 48" id="shape_more_vert"><path d="M24 16c2.21 0 4-1.79 4-4s-1.79-4-4-4-4 1.79-4 4 1.79 4 4 4zm0 4c-2.21 0-4 1.79-4 4s1.79 4 4 4 4-1.79 4-4-1.79-4-4-4zm0 12c-2.21 0-4 1.79-4 4s1.79 4 4 4 4-1.79 4-4-1.79-4-4-4z"/></symbol><symbol viewBox="0 0 48 48" id="shape_music_video"><path d="M46 10c0-2.21-1.79-4-4-4H6c-2.21 0-4 1.79-4 4v28c0 2.21 1.79 4 4 4h36c2.21 0 4-1.79 4-4V10zm-4 28H6V10h36v28zm-26-8c0-3.31 2.69-6 6-6 .71 0 1 .14 2 .37V12h10v4h-6l-.01 14.05C27.96 33.34 25.3 36 22 36c-3.31 0-6-2.69-6-6z"/></symbol><symbol viewBox="0 0 48 48" id="shape_navigate_before"><path d="M30.83 14.83L28 12 16 24l12 12 2.83-2.83L21.66 24z"/></symbol><symbol viewBox="0 0 48 48" id="shape_navigate_next"><path d="M20 12l-2.83 2.83L26.34 24l-9.17 9.17L20 36l12-12z"/></symbol><symbol viewBox="-6 -30 48 48" id="shape_network_check"><path d="M25.8-20c-.35 0-.64.19-.82.46l-.13.29L14.48 4.06c-.32.57-.51 1.22-.51 1.93 0 2.21 1.8 4.01 4.01 4.01 1.93 0 3.53-1.36 3.92-3.17l.01-.07L26.8-19c0-.55-.45-1-1-1zM-4-12l4 4c5.75-5.75 13.57-8.15 21.07-7.25l2.38-5.36C13.79-22.32 3.47-19.46-4-12zm40 4l4-4c-3.27-3.27-7.1-5.63-11.17-7.14l-1.07 5.63c2.99 1.24 5.8 3.07 8.24 5.51zm-8 8l4-4c-1.6-1.6-3.41-2.84-5.33-3.78l-1.11 5.84C26.43-1.39 27.25-.75 28 0zM4-4l4 4c2.27-2.27 5.11-3.59 8.06-3.99l2.57-5.77C13.35-9.92 8.03-8.02 4-4z"/></symbol><symbol viewBox="0 0 48 48" id="shape_notifications"><path d="M24 44c2.21 0 4-1.79 4-4h-8c0 2.21 1.79 4 4 4zm12-12V22c0-6.15-3.27-11.28-9-12.64V8c0-1.66-1.34-3-3-3s-3 1.34-3 3v1.36c-5.73 1.36-9 6.49-9 12.64v10l-4 4v2h32v-2l-4-4z"/></symbol><symbol viewBox="0 0 48 48" id="shape_open_with"><path d="M20 18h8v-6h6L24 2 14 12h6v6zm-2 2h-6v-6L2 24l10 10v-6h6v-8zm28 4L36 14v6h-6v8h6v6l10-10zm-18 6h-8v6h-6l10 10 10-10h-6v-6z"/></symbol><symbol viewBox="0 0 48 48" id="shape_pageview"><path d="M23 18c-2.76 0-5 2.24-5 5s2.24 5 5 5 5-2.24 5-5-2.24-5-5-5zM40 8H8c-2.21 0-4 1.79-4 4v24c0 2.21 1.79 4 4 4h32c2.21 0 4-1.79 4-4V12c0-2.21-1.79-4-4-4zm-6.41 28.41l-5.81-5.81c-1.39.88-3.02 1.4-4.78 1.4-4.97 0-9-4.03-9-9s4.03-9 9-9 9 4.03 9 9c0 1.76-.52 3.39-1.4 4.77l5.82 5.8-2.83 2.84z"/></symbol><symbol viewBox="0 0 48 48" id="shape_panorama_fish_eye"><path d="M24 4C12.95 4 4 12.95 4 24s8.95 20 20 20 20-8.95 20-20S35.05 4 24 4zm0 36c-8.82 0-16-7.18-16-16S15.18 8 24 8s16 7.18 16 16-7.18 16-16 16z"/></symbol><symbol viewBox="0 0 48 48" id="shape_pause"><path d="M12 38h8V10h-8v28zm16-28v28h8V10h-8z"/></symbol><symbol viewBox="0 0 48 48" id="shape_person"><path d="M24 24c4.42 0 8-3.59 8-8 0-4.42-3.58-8-8-8s-8 3.58-8 8c0 4.41 3.58 8 8 8zm0 4c-5.33 0-16 2.67-16 8v4h32v-4c0-5.33-10.67-8-16-8z"/></symbol><symbol viewBox="0 0 48 48" id="shape_person_outline"><path d="M24 11.8c2.32 0 4.2 1.88 4.2 4.2s-1.88 4.2-4.2 4.2-4.2-1.88-4.2-4.2 1.88-4.2 4.2-4.2m0 18c5.95 0 12.2 2.91 12.2 4.2v2.2H11.8V34c0-1.29 6.25-4.2 12.2-4.2M24 8c-4.42 0-8 3.58-8 8 0 4.41 3.58 8 8 8s8-3.59 8-8c0-4.42-3.58-8-8-8zm0 18c-5.33 0-16 2.67-16 8v6h32v-6c0-5.33-10.67-8-16-8z"/></symbol><symbol viewBox="0 0 48 48" id="shape_play_arrow"><path d="M16 10v28l22-14z"/></symbol><symbol viewBox="0 0 48 48" id="shape_play_circle_outline"><path d="M20 33l12-9-12-9v18zm4-29C12.95 4 4 12.95 4 24s8.95 20 20 20 20-8.95 20-20S35.05 4 24 4zm0 36c-8.82 0-16-7.18-16-16S15.18 8 24 8s16 7.18 16 16-7.18 16-16 16z"/></symbol><symbol viewBox="0 0 48 48" id="shape_power_settings_new"><path d="M26 6h-4v20h4V6zm9.67 4.33l-2.83 2.83C35.98 15.73 38 19.62 38 24c0 7.73-6.27 14-14 14s-14-6.27-14-14c0-4.38 2.02-8.27 5.16-10.84l-2.83-2.83C8.47 13.63 6 18.52 6 24c0 9.94 8.06 18 18 18s18-8.06 18-18c0-5.48-2.47-10.37-6.33-13.67z"/></symbol><symbol viewBox="0 0 48 48" id="shape_recent_actors"><path d="M42 10v28h4V10h-4zm-8 28h4V10h-4v28zm-6-28H4c-1.1 0-2 .9-2 2v24c0 1.1.9 2 2 2h24c1.1 0 2-.9 2-2V12c0-1.1-.9-2-2-2zm-12 5.5c2.48 0 4.5 2.02 4.5 4.5 0 2.49-2.02 4.5-4.5 4.5s-4.5-2.01-4.5-4.5c0-2.48 2.02-4.5 4.5-4.5zM25 34H7v-1.5c0-3 6-4.5 9-4.5s9 1.5 9 4.5V34z"/></symbol><symbol viewBox="0 0 48 48" id="shape_redo"><path d="M36.79 21.2C33.11 17.97 28.29 16 23 16c-9.3 0-17.17 6.06-19.92 14.44L7.81 32c2.1-6.39 8.1-11 15.19-11 3.91 0 7.46 1.44 10.23 3.77L26 32h18V14l-7.21 7.2z"/></symbol><symbol viewBox="0 0 48 48" id="shape_refresh"><path d="M35.3 12.7C32.41 9.8 28.42 8 24 8 15.16 8 8.02 15.16 8.02 24S15.16 40 24 40c7.45 0 13.69-5.1 15.46-12H35.3c-1.65 4.66-6.07 8-11.3 8-6.63 0-12-5.37-12-12s5.37-12 12-12c3.31 0 6.28 1.38 8.45 3.55L26 22h14V8l-4.7 4.7z"/></symbol><symbol viewBox="0 0 48 48" id="shape_remove_circle_outline"><path d="M14 22v4h20v-4H14zM24 4C12.95 4 4 12.95 4 24s8.95 20 20 20 20-8.95 20-20S35.05 4 24 4zm0 36c-8.82 0-16-7.18-16-16S15.18 8 24 8s16 7.18 16 16-7.18 16-16 16z"/></symbol><symbol viewBox="0 0 48 48" id="shape_repeat"><path d="M14 14h20v6l8-8-8-8v6H10v12h4v-8zm20 20H14v-6l-8 8 8 8v-6h24V26h-4v8z"/></symbol><symbol viewBox="0 0 48 48" id="shape_reply"><path d="M20 18v-8L6 24l14 14v-8.2c10 0 17 3.2 22 10.2-2-10-8-20-22-22z"/></symbol><symbol viewBox="0 0 48 48" id="shape_save"><path d="M34 6H10c-2.21 0-4 1.79-4 4v28c0 2.21 1.79 4 4 4h28c2.21 0 4-1.79 4-4V14l-8-8zM24 38c-3.31 0-6-2.69-6-6s2.69-6 6-6 6 2.69 6 6-2.69 6-6 6zm6-20H10v-8h20v8z"/></symbol><symbol viewBox="0 0 48 48" id="shape_schedule"><path d="M23.99 4C12.94 4 4 12.95 4 24s8.94 20 19.99 20C35.04 44 44 35.05 44 24S35.04 4 23.99 4zM24 40c-8.84 0-16-7.16-16-16S15.16 8 24 8s16 7.16 16 16-7.16 16-16 16zm1-26h-3v12l10.49 6.3L34 29.84l-9-5.34z"/></symbol><symbol viewBox="0 0 48 48" id="shape_search"><path d="M31 28h-1.59l-.55-.55C30.82 25.18 32 22.23 32 19c0-7.18-5.82-13-13-13S6 11.82 6 19s5.82 13 13 13c3.23 0 6.18-1.18 8.45-3.13l.55.55V31l10 9.98L40.98 38 31 28zm-12 0c-4.97 0-9-4.03-9-9s4.03-9 9-9 9 4.03 9 9-4.03 9-9 9z"/></symbol><symbol viewBox="0 0 48 48" id="shape_send"><path d="M4.02 42L46 24 4.02 6 4 20l30 4-30 4z"/></symbol><symbol viewBox="0 0 48 48" id="shape_settings"><path d="M38.86 25.95c.08-.64.14-1.29.14-1.95s-.06-1.31-.14-1.95l4.23-3.31c.38-.3.49-.84.24-1.28l-4-6.93c-.25-.43-.77-.61-1.22-.43l-4.98 2.01c-1.03-.79-2.16-1.46-3.38-1.97L29 4.84c-.09-.47-.5-.84-1-.84h-8c-.5 0-.91.37-.99.84l-.75 5.3c-1.22.51-2.35 1.17-3.38 1.97L9.9 10.1c-.45-.17-.97 0-1.22.43l-4 6.93c-.25.43-.14.97.24 1.28l4.22 3.31C9.06 22.69 9 23.34 9 24s.06 1.31.14 1.95l-4.22 3.31c-.38.3-.49.84-.24 1.28l4 6.93c.25.43.77.61 1.22.43l4.98-2.01c1.03.79 2.16 1.46 3.38 1.97l.75 5.3c.08.47.49.84.99.84h8c.5 0 .91-.37.99-.84l.75-5.3c1.22-.51 2.35-1.17 3.38-1.97l4.98 2.01c.45.17.97 0 1.22-.43l4-6.93c.25-.43.14-.97-.24-1.28l-4.22-3.31zM24 31c-3.87 0-7-3.13-7-7s3.13-7 7-7 7 3.13 7 7-3.13 7-7 7z"/></symbol><symbol viewBox="0 0 48 48" id="shape_slideshow"><path d="M20 16v16l10-8-10-8zM38 6H10c-2.21 0-4 1.79-4 4v28c0 2.21 1.79 4 4 4h28c2.21 0 4-1.79 4-4V10c0-2.21-1.79-4-4-4zm0 32H10V10h28v28z"/></symbol><symbol viewBox="0 0 48 48" id="shape_stop"><path d="M12 12h24v24H12z"/></symbol><symbol viewBox="0 0 48 48" id="shape_sync"><path d="M24 8V2l-8 8 8 8v-6c6.63 0 12 5.37 12 12 0 2.03-.51 3.93-1.39 5.61l2.92 2.92C39.08 30.05 40 27.14 40 24c0-8.84-7.16-16-16-16zm0 28c-6.63 0-12-5.37-12-12 0-2.03.51-3.93 1.39-5.61l-2.92-2.92C8.92 17.95 8 20.86 8 24c0 8.84 7.16 16 16 16v6l8-8-8-8v6z"/></symbol><symbol viewBox="0 0 48 48" id="shape_thumb_down"><path d="M30 6H12c-1.66 0-3.08 1.01-3.68 2.44l-6.03 14.1C2.11 23 2 23.49 2 24v3.83l.02.02L2 28c0 2.21 1.79 4 4 4h12.63l-1.91 9.14c-.04.2-.07.41-.07.63 0 .83.34 1.58.88 2.12L19.66 46l13.17-13.17C33.55 32.1 34 31.1 34 30V10c0-2.21-1.79-4-4-4zm8 0v24h8V6h-8z"/></symbol><symbol viewBox="0 0 48 48" id="shape_timelapse"><path d="M32.49 15.51C30.14 13.17 27.07 12 24 12v12l-8.49 8.49c4.69 4.69 12.28 4.69 16.97 0 4.69-4.69 4.69-12.29.01-16.98zM24 4C12.95 4 4 12.95 4 24s8.95 20 20 20 20-8.96 20-20c0-11.05-8.95-20-20-20zm0 36c-8.84 0-16-7.16-16-16S15.16 8 24 8s16 7.16 16 16-7.16 16-16 16z"/></symbol><symbol viewBox="0 0 48 48" id="shape_timer"><path d="M30 2H18v4h12V2zm-8 26h4V16h-4v12zm16.05-13.23l2.85-2.85c-.86-1.03-1.8-1.97-2.83-2.83l-2.85 2.85C32.15 9.48 28.24 8 23.99 8 14.04 8 6 16.06 6 26s8.04 18 17.99 18S42 35.94 42 26c0-4.25-1.48-8.15-3.95-11.23zM24 40c-7.73 0-14-6.27-14-14s6.27-14 14-14 14 6.27 14 14-6.27 14-14 14z"/></symbol><symbol viewBox="0 0 48 48" id="shape_timer_off"><path d="M38.07 9.1l-2.85 2.85C32.15 9.48 28.24 8 23.99 8c-3.66 0-7.05 1.1-9.89 2.97l2.91 2.91C19.07 12.69 21.45 12 24 12c7.73 0 14 6.27 14 14 0 2.55-.69 4.93-1.88 6.99l2.91 2.91C40.9 33.06 42 29.66 42 26c0-4.25-1.48-8.15-3.95-11.23l2.85-2.85-2.83-2.82zM30 2H18v4h12V2zm-8 16.87l4 4V16h-4v2.87zM6.04 8l-2.55 2.54L9 16.05C7.11 18.9 6 22.32 6 26c0 9.94 8.04 18 17.99 18 3.68 0 7.1-1.11 9.95-3l5 5 2.54-2.55-15.4-15.41L6.04 8zM24 40c-7.73 0-14-6.27-14-14 0-2.57.7-4.97 1.91-7.04l19.13 19.13C28.97 39.3 26.57 40 24 40z"/></symbol><symbol viewBox="0 0 48 48" id="shape_title"><path d="M10 8v6h11v24h6V14h11V8z"/></symbol><symbol viewBox="0 0 48 48" id="shape_undo"><path d="M25 16c-5.29 0-10.11 1.97-13.8 5.2L4 14v18h18l-7.23-7.23C17.54 22.44 21.09 21 25 21c7.09 0 13.09 4.61 15.19 11l4.73-1.56C42.17 22.06 34.3 16 25 16z"/></symbol><symbol viewBox="0 0 48 48" id="shape_videocam"><path d="M34 21v-7c0-1.1-.9-2-2-2H8c-1.1 0-2 .9-2 2v20c0 1.1.9 2 2 2h24c1.1 0 2-.9 2-2v-7l8 8V13l-8 8z"/></symbol><symbol viewBox="0 0 48 48" id="shape_visibility"><path d="M24 9C14 9 5.46 15.22 2 24c3.46 8.78 12 15 22 15 10.01 0 18.54-6.22 22-15-3.46-8.78-11.99-15-22-15zm0 25c-5.52 0-10-4.48-10-10s4.48-10 10-10 10 4.48 10 10-4.48 10-10 10zm0-16c-3.31 0-6 2.69-6 6s2.69 6 6 6 6-2.69 6-6-2.69-6-6-6z"/></symbol><symbol viewBox="0 0 48 48" id="shape_volume_down"><path d="M37 24c0-3.53-2.04-6.58-5-8.05v16.11c2.96-1.48 5-4.53 5-8.06zm-27-6v12h8l10 10V8L18 18h-8z"/></symbol><symbol viewBox="0 0 48 48" id="shape_volume_mute"><path d="M14 18v12h8l10 10V8L22 18h-8z"/></symbol><symbol viewBox="0 0 48 48" id="shape_volume_off"><path d="M33 24c0-3.53-2.04-6.58-5-8.05v4.42l4.91 4.91c.06-.42.09-.85.09-1.28zm5 0c0 1.88-.41 3.65-1.08 5.28l3.03 3.03C41.25 29.82 42 27 42 24c0-8.56-5.99-15.72-14-17.54v4.13c5.78 1.72 10 7.07 10 13.41zM8.55 6L6 8.55 15.45 18H6v12h8l10 10V26.55l8.51 8.51c-1.34 1.03-2.85 1.86-4.51 2.36v4.13c2.75-.63 5.26-1.89 7.37-3.62L39.45 42 42 39.45l-18-18L8.55 6zM24 8l-4.18 4.18L24 16.36V8z"/></symbol><symbol viewBox="0 0 48 48" id="shape_volume_up"><path d="M6 18v12h8l10 10V8L14 18H6zm27 6c0-3.53-2.04-6.58-5-8.05v16.11c2.96-1.48 5-4.53 5-8.06zM28 6.46v4.13c5.78 1.72 10 7.07 10 13.41s-4.22 11.69-10 13.41v4.13c8.01-1.82 14-8.97 14-17.54S36.01 8.28 28 6.46z"/></symbol><symbol viewBox="0 0 48 48" id="shape_vpn_key"><path d="M25.3 20c-1.65-4.66-6.08-8-11.3-8-6.63 0-12 5.37-12 12s5.37 12 12 12c5.22 0 9.65-3.34 11.3-8H34v8h8v-8h4v-8H25.3zM14 28c-2.21 0-4-1.79-4-4s1.79-4 4-4 4 1.79 4 4-1.79 4-4 4z"/></symbol><symbol viewBox="0 0 48 48" id="shape_warning"><path d="M2 42h44L24 4 2 42zm24-6h-4v-4h4v4zm0-8h-4v-8h4v8z"/></symbol><symbol viewBox="0 0 48 48" id="shape_web"><path d="M40 8H8c-2.21 0-3.98 1.79-3.98 4L4 36c0 2.21 1.79 4 4 4h32c2.21 0 4-1.79 4-4V12c0-2.21-1.79-4-4-4zM30 36H8v-8h22v8zm0-10H8v-8h22v8zm10 10h-8V18h8v18z"/></symbol><symbol viewBox="0 0 24 24" id="shape_zoom_in"><path d="M15.5 14h-.79l-.28-.27C15.41 12.59 16 11.11 16 9.5 16 5.91 13.09 3 9.5 3S3 5.91 3 9.5 5.91 16 9.5 16c1.61 0 3.09-.59 4.23-1.57l.27.28v.79l5 4.99L20.49 19l-4.99-5zm-6 0C7.01 14 5 11.99 5 9.5S7.01 5 9.5 5 14 7.01 14 9.5 11.99 14 9.5 14zm2.5-4h-2v2H9v-2H7V9h2V7h1v2h2v1z"/></symbol><symbol viewBox="0 0 24 24" id="shape_zoom_out"><path d="M15.5 14h-.79l-.28-.27C15.41 12.59 16 11.11 16 9.5 16 5.91 13.09 3 9.5 3S3 5.91 3 9.5 5.91 16 9.5 16c1.61 0 3.09-.59 4.23-1.57l.27.28v.79l5 4.99L20.49 19l-4.99-5zm-6 0C7.01 14 5 11.99 5 9.5S7.01 5 9.5 5 14 7.01 14 9.5 11.99 14 9.5 14zM7 9h5v1H7z"/></symbol><symbol viewBox="0 0 48 48" id="shape_arrow_right"> <path d="M 27.17,14.83 34.34,22 H 6 v 4 H 34.34 L 27.17,33.17 30,36 42,24 30,12 Z"/> </symbol><symbol viewBox="0 0 48 48" id="shape_disconnected"> <g id="disconnected-surface1"> <path style=" stroke:none;fill-rule:nonzero;fill:#FFFFFF;fill-opacity:1;" d="M 31.65625 4.0625 C 30.101563 4.054688 28.546875 4.625 27.414063 5.757813 L 23 10.171875 L 21.414063 8.585938 L 18.585938 11.414063 L 22.171875 15 L 18.585938 18.585938 L 21.414063 21.414063 L 25 17.828125 L 30.171875 23 L 26.585938 26.585938 L 29.414063 29.414063 L 33 25.828125 L 36.585938 29.414063 L 39.414063 26.585938 L 37.828125 25 L 42.242188 20.585938 C 44.585938 18.242188 44.585938 14.445313 42.242188 12.101563 L 40.484375 10.34375 L 43.414063 7.414063 L 40.585938 4.585938 L 37.65625 7.515625 L 35.898438 5.757813 C 34.765625 4.625 33.210938 4.0625 31.65625 4.0625 Z M 11.414063 18.585938 L 8.585938 21.414063 L 10.171875 23 L 5.757813 27.414063 C 3.414063 29.757813 3.414063 33.554688 5.757813 35.898438 L 7.515625 37.65625 L 4.585938 40.585938 L 7.414063 43.414063 L 10.34375 40.484375 L 12.101563 42.242188 C 13.234375 43.375 14.742188 44 16.34375 44 C 17.945313 44 19.453125 43.375 20.585938 42.242188 L 25 37.828125 L 26.585938 39.414063 L 29.414063 36.585938 Z "/> </g> </symbol><symbol viewBox="0 0 48 48" id="shape_enter"><path d="M20.17 31.17L23 34l10-10-10-10-2.83 2.83L25.34 22H6v4h19.34l-5.17 5.17zM38 6H10c-2.21 0-4 1.79-4 4v8h4v-8h28v28H10v-8H6v8c0 2.21 1.79 4 4 4h28c2.21 0 4-1.79 4-4V10c0-2.21-1.79-4-4-4z"/></symbol><symbol viewBox="0 0 48 48" id="shape_exit"> <path d="M 27 14 L 24.169922 16.830078 L 29.339844 22 L 14 22 L 14 26 L 29.339844 26 L 24.169922 31.169922 L 27 34 L 37 24 L 27 14 z "/> <path d="m 10,6 h 28 c 2.21,0 4,1.79 4,4 v 8 H 38 V 10 H 10 v 28 h 28 v -8 h 4 v 8 c 0,2.21 -1.79,4 -4,4 H 10 C 7.79,42 6,40.21 6,38 V 10 C 6,7.79 7.79,6 10,6 Z"/> </symbol><symbol viewBox="0 0 48 48" id="shape_h_line"> <path d="M 42,26 H 6 v -4 h 36 z"/> </symbol><symbol viewBox="0 0 48 48" id="shape_hand"> <path d="M 41,13.727062 V 37.454501 C 41,41.054526 38.054546,44 34.454546,44 H 22.50909 c -1.767271,0 -3.436363,-0.703641 -4.663636,-1.947285 L 5,28.994442 c 0,0 2.0618181,-2.012742 2.1272728,-2.045469 0.3599999,-0.310911 0.8018181,-0.474548 1.292727,-0.474548 0.3600002,0 0.6872732,0.09818 0.9818182,0.261819 0.06546,0.01636 7.052728,4.025483 7.052728,4.025483 V 11.272501 c 0,-1.3581911 1.096362,-2.4545627 2.454545,-2.4545627 1.358182,0 2.454546,1.0963716 2.454546,2.4545627 V 22.727125 H 23 V 7.181563 C 23,5.8233716 24.096364,4.727 25.454546,4.727 c 1.358181,0 2.454545,1.0963716 2.454545,2.454563 v 15.545562 h 1.636363 V 8.8179383 c 0,-1.3581924 1.096364,-2.454562 2.454546,-2.454562 1.358182,0 2.454546,1.0963696 2.454546,2.454562 V 22.727125 h 1.636363 v -9.000063 c 0,-1.358191 1.096364,-2.454561 2.454545,-2.454561 1.358182,0 2.454546,1.09637 2.454546,2.454561 z"/> </symbol><symbol viewBox="0 0 48 48" id="shape_hand_off"> <path d="M 25.455078 4.7265625 C 24.096896 4.7265625 23 5.8234492 23 7.1816406 L 23 19.353516 L 41 37.357422 L 41 13.726562 C 41 12.368372 39.903104 11.273438 38.544922 11.273438 C 37.186741 11.273437 36.091797 12.368372 36.091797 13.726562 L 36.091797 22.726562 L 34.455078 22.726562 L 34.455078 8.8183594 C 34.455078 7.460167 33.358182 6.3632812 32 6.3632812 C 30.641818 6.3632812 29.544922 7.460167 29.544922 8.8183594 L 29.544922 22.726562 L 27.908203 22.726562 L 27.908203 7.1816406 C 27.908203 5.8234492 26.813259 4.7265625 25.455078 4.7265625 z M 18.908203 8.8183594 C 17.55002 8.8183594 16.455078 9.9152464 16.455078 11.273438 L 16.455078 12.806641 L 21.363281 17.716797 L 21.363281 11.273438 C 21.363281 9.9152464 20.266385 8.8183594 18.908203 8.8183594 z M 16.455078 17.904297 L 16.455078 30.761719 C 16.455078 30.761719 9.4678038 26.752688 9.4023438 26.736328 C 9.1077988 26.572689 8.7799221 26.474609 8.4199219 26.474609 C 7.929013 26.474609 7.486953 26.638308 7.1269531 26.949219 C 7.0614984 26.981946 5 28.994141 5 28.994141 L 17.845703 42.052734 C 19.072976 43.296378 20.742495 44 22.509766 44 L 34.455078 44 C 36.648759 44 38.595907 42.903419 39.785156 41.234375 L 16.455078 17.904297 z "/> <path d="M 8.55,10 6,12.55 39.45,46 42,43.46 Z"/> </symbol><symbol viewBox="0 0 48 48" id="shape_marker_pen"> <path d="M 33.5,22 26,14.5 6,34.5 V 42 h 7.5 z m 5.91,-5.91 c 0.78,-0.78 0.78,-2.05 0,-2.83 L 34.74,8.59 c -0.78,-0.78 -2.05,-0.78 -2.83,0 L 28,12.5 35.5,20 Z"/> <path d="m 42,36 v 6 H 18 l 6,-6"/> </symbol><symbol viewBox="0 0 48 48" id="shape_pointer"> <path d="m 33.669383,26.194029 c 0.32999,0.312213 0.416654,0.798864 0.243325,1.19774 -0.173327,0.416654 -0.573315,0.694423 -1.024411,0.694423 h -6.632014 l 3.48989,8.264185 c 0.243325,0.573315 -0.03444,1.215518 -0.589982,1.458844 l -3.073237,1.302181 c -0.573315,0.243325 -1.215517,-0.03444 -1.458843,-0.589982 l -3.315451,-7.847531 -5.416497,5.416497 c -0.207771,0.207771 -0.486651,0.329989 -0.781086,0.329989 -0.138885,0 -0.295547,-0.03444 -0.416654,-0.08666 C 14.277769,36.160383 14,35.760396 14,35.309299 V 9.1990077 c 0,-0.4510969 0.277769,-0.8510844 0.694423,-1.0244122 0.121107,-0.052221 0.277769,-0.086664 0.416654,-0.086664 0.295546,0 0.573315,0.1044412 0.781086,0.3299896 z"/> </symbol><symbol viewBox="0 0 48 48" id="shape_rectangle"> <path d="M 4,10 V 38 H 44 V 10 Z m 4,4 H 40 V 34 H 8 Z"/> </symbol><symbol viewBox="0 0 48 48" id="shape_rectangle_filled"> <path d="M 4,10 V 38 H 44 V 10 Z"/> </symbol><symbol viewBox="0 0 48 48" id="shape_time_elapsed"> <path d="M 30,2 H 18 v 4 h 12 z"/> <path d="M 23.990234 8 C 14.040234 8 6 16.06 6 26 C 6 35.94 14.040234 44 23.990234 44 C 33.940234 44 42 35.94 42 26 C 42 21.75 40.520781 17.849531 38.050781 14.769531 L 40.900391 11.919922 C 40.040391 10.889922 39.100312 9.9498437 38.070312 9.0898438 L 35.220703 11.939453 C 32.150703 9.4794531 28.240234 8 23.990234 8 z M 24 12 C 31.73 12 38 18.27 38 26 C 38 33.73 31.73 40 24 40 C 16.27 40 10 33.73 10 26 C 10 18.27 16.27 12 24 12 z "/> <path d="M 31.559729,18.216495 C 29.406293,16.072165 26.593078,15 23.779865,15 V 25.996564 L 16,33.776632 c 4.297711,4.297824 11.252855,4.297824 15.550566,0 4.297711,-4.297823 4.297711,-11.262314 0.0092,-15.560137 z" id="time_elapsed-path24"/> </symbol><symbol viewBox="0 0 48 48" id="shape_triangle_filled"> <path d="M 24,8 4,40 h 40 z"/> </symbol><style xmlns="">@font-face{
    font-family: 'bnazanin';
    src:'./../../fonts/bnazanin.ttf';
}

.dideo-tooltip {
    position: relative;
    display: inline-block;
    font-family: 'bnazanin';
    font-size: 0;
    padding: 3px 5px;
}

.dideo-tooltip .tooltiptext {
    visibility: hidden;
    font-family: 'bnazanin';
    width: 120px;
    font-size: 13px;
    background-color: black;
    color: #fff;
    text-align: center;
    border-radius: 6px;
    padding: 5px 0;
    position: absolute;
    z-index: 1;
    top: 0px;
    left: 110%;
}
.dideo-img{
    width: 18px;
    height: 18px;
    margin-bottom: -3px;
    filter: drop-shadow(0px 0px 2px #adadad);
    webkit:filter: drop-shadow(0px 0px 2px #adadad);
}
.dideo-tooltip .tooltiptext::after {
    content: "";
    position: absolute;
    top: 50%;
    right: 100%;
    margin-top: -5px;
    border-width: 5px;
    border-style: solid;
    border-color: transparent black transparent transparent;
}
.dideo-tooltip:hover .tooltiptext {
    visibility: visible;
}
.srg{
    min-width: 750px;
}</style></svg>